<?xml version="1.0" encoding="UTF-8"?>
<svg id="Camada_2" data-name="Camada 2" xmlns="http://www.w3.org/2000/svg" viewBox="0 0 890.06 971.21">
  <defs>
    <style>
      .cls-1 {
        fill: #8312d3;
      }
    </style>
  </defs>
  <g id="objects">
    <path class="cls-1" d="m444.99,971.21l-22.9-50.84c-.28-.62-29.38-64.37-91.39-146.92-36.31-48.33-76.65-93.57-119.89-134.46-53.9-50.96-112.5-95.29-174.18-131.74L0,485.6l36.64-21.65c61.68-36.45,120.28-80.78,174.18-131.74,43.24-40.89,83.58-86.13,119.89-134.46,62.01-82.54,91.11-146.3,91.4-146.93L445.07,0l22.9,50.84c.28.62,29.38,64.37,91.39,146.92,36.31,48.33,76.65,93.57,119.89,134.46,53.9,50.96,112.5,95.29,174.18,131.74l36.64,21.65-36.64,21.65c-61.68,36.45-120.28,80.77-174.18,131.74-43.25,40.89-83.58,86.13-119.89,134.46-62.01,82.54-91.11,146.3-91.4,146.93l-22.97,50.82ZM97.18,485.6c52.41,34,102.37,73.42,148.95,117.55,45.4,43.01,87.71,90.57,125.75,141.36,33.33,44.5,57.42,83.46,73.15,111.22,15.73-27.77,39.82-66.73,73.15-111.22,38.04-50.79,80.35-98.35,125.75-141.36,46.58-44.13,96.54-83.55,148.95-117.55-52.41-34-102.37-73.42-148.95-117.55-45.4-43.01-87.71-90.57-125.75-141.36-33.33-44.5-57.42-83.46-73.15-111.22-15.73,27.77-39.82,66.73-73.15,111.22-38.04,50.79-80.35,98.35-125.75,141.36-46.58,44.13-96.54,83.55-148.95,117.55Z"/>
  </g>
</svg>