<?xml version="1.0" encoding="UTF-8"?>
<svg id="Camada_2" data-name="Camada 2" xmlns="http://www.w3.org/2000/svg" viewBox="0 0 745.4 921.22">
  <defs>
    <style>
      .cls-1 {
        fill: #8312d3;
      }
    </style>
  </defs>
  <g id="objects">
    <path class="cls-1" d="m524.76,921.22H217.63c-14.9,0-27.92-10.09-31.65-24.53-3.73-14.4,2.75-29.49,15.75-36.7,28.79-15.96,53.46-43.4,73.31-81.56,16.1-30.94,28.75-68.96,37.03-111.06-30.25,15.75-63.82,23.98-98.44,23.98-57.06,0-110.71-22.22-151.06-62.57C22.22,588.44,0,534.79,0,477.73c0-88.92,73.77-155.59,159.2-232.79,64.41-58.21,137.42-124.19,192.23-211.17L372.7,0l21.28,33.77c54.81,86.98,127.81,152.96,192.22,211.17,85.42,77.2,159.2,143.87,159.2,232.79,0,57.06-22.22,110.71-62.57,151.06-40.35,40.35-93.99,62.57-151.06,62.57-35.97,0-70.69-8.84-101.79-25.75,8.2,42.41,20.79,80.72,36.9,111.93,19.91,38.58,44.7,66.31,73.68,82.41,13.05,7.25,19.55,22.39,15.82,36.83-3.73,14.4-16.73,24.45-31.62,24.45Zm-254.96-50.3h202.77c-48.53-48.02-82.2-125.09-96.62-223.16-2.27-15.42,4.88-30.64,18.2-38.76,13.27-8.09,29.99-7.47,42.61,1.58,27.8,19.94,60.66,30.48,95.02,30.48,90.06,0,163.32-73.27,163.32-163.32,0-66.57-62.94-123.46-142.62-195.47-58.97-53.3-124.89-112.87-179.78-189.95-54.88,77.08-120.8,136.65-179.78,189.95-79.68,72.01-142.62,128.89-142.62,195.47,0,90.06,73.27,163.32,163.32,163.32,33.18,0,65.09-9.88,92.29-28.57,12.68-8.72,29.32-9.06,42.38-.89,13.11,8.21,20.09,23.38,17.78,38.67-14.62,96.86-48.17,173.05-96.27,220.66Z"/>
  </g>
</svg>