<?xml version="1.0" encoding="UTF-8"?>
<svg id="Camada_2" data-name="Camada 2" xmlns="http://www.w3.org/2000/svg" viewBox="0 0 744.78 899.2">
  <defs>
    <style>
      .cls-1 {
        fill: #8312d3;
      }
    </style>
  </defs>
  <g id="objects">
    <path class="cls-1" d="m524.36,899.2H217.47c-14.86,0-27.88-10.07-31.64-24.5-3.75-14.36,2.64-29.44,15.54-36.67l.11-.06c28.71-15.9,53.31-43.21,73.14-81.18,16.17-30.97,28.86-69.07,37.16-111.25-30.22,15.72-63.77,23.94-98.33,23.94-57.03,0-110.63-22.2-150.94-62.51S0,513.05,0,456.03c0-46.45,13.16-88.68,39.13-125.54,20.69-29.37,49.07-54.68,84.49-75.38-.05-2.06-.07-4.14-.07-6.26,0-66.35,25.8-128.76,72.65-175.73C243.03,26.16,305.35.19,371.67,0c.24,0,.49,0,.73,0,65.94,0,127.97,25.34,174.73,71.39,46.92,46.21,73.23,108.13,74.09,174.34.05,4.1,0,8.18-.15,12.28,35.33,20.81,63.67,45.97,84.39,74.93,26.09,36.48,39.33,77.89,39.33,123.09,0,57.03-22.2,110.63-62.51,150.94-40.31,40.31-93.92,62.51-150.95,62.51-35.91,0-70.59-8.81-101.63-25.67,8.21,42.46,20.84,80.83,36.98,112.03,19.85,38.39,44.55,65.98,73.41,82,13.1,7.3,19.6,22.49,15.84,36.96-3.73,14.37-16.72,24.4-31.57,24.4Zm-254.77-50.3h202.59c-48.31-47.79-81.91-124.48-96.39-222.06-2.3-15.52,4.85-30.85,18.23-39.06,13.36-8.2,30.25-7.64,43.03,1.43h0c27.61,19.6,60.21,29.96,94.27,29.96,89.96,0,163.15-73.19,163.15-163.14,0-84.91-60.57-134.75-111.37-161.61l-15.01-7.93,1.75-16.89c.83-7.98,1.18-15.57,1.08-23.21-.68-52.88-21.67-102.3-59.09-139.16-37.28-36.72-86.79-56.93-139.43-56.93-.2,0-.38,0-.58,0-52.91.15-102.63,20.87-140,58.34-37.38,37.48-57.96,87.27-57.96,140.21,0,6.4.27,12.36.82,18.24l1.59,16.82-14.97,7.83c-50.63,26.47-110.98,76.46-110.98,164.28s73.19,163.14,163.14,163.14c32.88,0,64.56-9.72,91.6-28.12,12.85-8.74,29.64-9.03,42.79-.75,13.16,8.29,20.16,23.59,17.82,38.97-14.66,96.36-48.12,172.19-96.07,219.62Zm138.34-218.67s0,0,.01,0c0,0,0,0-.01,0h0Z"/>
  </g>
</svg>