<?xml version="1.0" encoding="UTF-8"?>
<svg id="Camada_2" data-name="Camada 2" xmlns="http://www.w3.org/2000/svg" viewBox="0 0 1003.54 921.22">
  <defs>
    <style>
      .cls-1 {
        fill: #f0ba00;
      }
    </style>
  </defs>
  <g id="objects">
    <path class="cls-1" d="m501.77,921.22l-21.28-33.78c-75.84-120.37-176.46-211.3-265.25-291.53C99.75,491.55,0,401.42,0,283.61c0-75.77,29.5-147,83.05-200.56C136.61,29.5,207.84,0,283.61,0c66.28,0,128.84,24.9,180.92,72,15.27,13.81,27.56,27.64,36.9,39.45,9.12-11.81,21.14-25.6,36.17-39.35C589.15,24.93,652.2,0,719.93,0c75.77,0,147,29.5,200.56,83.05s83.05,124.78,83.05,200.56c0,117.81-99.75,207.94-215.24,312.31-88.78,80.23-189.41,171.16-265.25,291.53l-21.28,33.78ZM283.61,50.3c-62.34,0-120.93,24.26-164.99,68.32-44.06,44.06-68.32,102.65-68.32,164.99,0,42.91,17.64,85.1,55.53,132.77,36.29,45.66,88.19,92.56,143.14,142.22,83.25,75.23,176.66,159.63,252.8,269.81,76.15-110.18,169.55-194.58,252.8-269.81,54.95-49.66,106.86-96.56,143.14-142.22,37.88-47.67,55.53-89.86,55.53-132.77,0-62.34-24.26-120.93-68.32-164.99-44.06-44.06-102.65-68.32-164.99-68.32-55.14,0-104.62,19.42-147.06,57.72-32.58,29.4-48.66,59.5-48.82,59.8l-21.77,41.85-22.58-41.47c-.13-.24-17.06-30.47-50.15-60.02-43.02-38.41-92.12-57.89-145.94-57.89Z"/>
  </g>
</svg>