<svg width="49" height="50" viewBox="0 0 49 50" fill="none" xmlns="http://www.w3.org/2000/svg">
<circle cx="15" cy="15" r="15" transform="matrix(-1 0 0 1 39 10)" fill="#F0BA00"/>
<rect y="24" width="49" height="2" rx="1" fill="#F0BA00"/>
<rect x="23.5" y="49.5" width="49" height="2" rx="1" transform="rotate(-90 23.5 49.5)" fill="#F0BA00"/>
<rect x="6.46875" y="41.617" width="49" height="2" rx="1" transform="rotate(-45 6.46875 41.617)" fill="#F0BA00"/>
<rect x="7.88293" y="6.96875" width="49" height="2" rx="1" transform="rotate(45 7.88293 6.96875)" fill="#F0BA00"/>
<path fill-rule="evenodd" clip-rule="evenodd" d="M28 34.0708C19.7157 34.0708 13 27.3551 13 19.0708C13 17.2912 13.3099 15.5839 13.8788 14C10.8805 16.7426 9 20.6871 9 25.0708C9 33.3551 15.7157 40.0708 24 40.0708C30.5046 40.0708 36.0422 35.9306 38.1212 30.1417C35.4534 32.582 31.9006 34.0708 28 34.0708Z" fill="white"/>
</svg>
